<?xml version="1.0" encoding="UTF-8" standalone="no"?>
<!DOCTYPE svg PUBLIC "-//W3C//DTD SVG 1.1//EN" "http://www.w3.org/Graphics/SVG/1.1/DTD/svg11.dtd">
<svg xmlns="http://www.w3.org/2000/svg" version="1.1" viewBox="0.00 0.00 433.00 365.00">
<g stroke-width="2.00" fill="none" stroke-linecap="butt">
<path stroke="#7c7843" d="
  M 313.77 5.17
  Q 311.27 4.57 308.75 3.84
  Q 305.55 2.91 299.02 4.56"
/>
<path stroke="#7c7843" d="
  M 317.29 7.76
  Q 323.25 15.84 317.56 24.22"
/>
<path stroke="#7c7843" d="
  M 297.68 43.57
  Q 294.73 49.83 293.18 56.81"
/>
<path stroke="#7c7843" d="
  M 292.27 59.62
  Q 291.31 61.00 291.30 62.78"
/>
<path stroke="#7c7843" d="
  M 288.51 70.17
  Q 286.06 74.35 284.96 79.11"
/>
<path stroke="#7c7843" d="
  M 283.52 83.30
  C 287.10 89.83 288.24 96.05 288.99 103.68
  Q 289.02 103.98 289.22 103.76
  Q 289.31 103.65 289.26 103.53
  Q 289.24 103.49 289.24 103.47
  Q 289.19 103.02 289.46 102.67"
/>
<path stroke="#7c7843" d="
  M 289.79 106.11
  Q 289.07 109.15 289.87 112.10"
/>
<path stroke="#7c7843" d="
  M 289.04 115.00
  Q 287.50 116.26 289.38 117.39
  C 290.22 117.90 292.01 117.66 293.19 118.01
  C 296.69 119.04 299.89 118.46 303.36 119.14
  Q 305.48 119.56 307.65 119.66
  C 310.38 119.80 313.06 120.77 316.02 120.52
  C 317.64 120.38 319.32 121.32 321.02 121.47
  C 323.81 121.73 326.02 122.45 329.02 122.61
  C 341.42 123.26 342.51 134.49 340.71 144.03"
/>
<path stroke="#7c7843" d="
  M 340.71 144.03
  Q 340.01 144.81 338.78 144.43
  C 322.02 139.23 305.99 137.55 288.75 137.68
  C 284.27 137.71 280.00 140.72 276.37 143.11
  A 1.10 1.10 0.0 0 0 276.16 144.76
  C 291.52 161.81 302.90 177.51 317.95 199.57
  Q 333.98 223.07 356.33 239.68"
/>
<path stroke="#7c7843" d="
  M 356.66 263.55
  Q 356.40 263.79 356.40 264.00
  Q 356.37 283.17 356.37 302.34
  C 356.37 304.57 355.70 306.61 355.40 308.89"
/>
<path stroke="#7c7843" d="
  M 350.21 314.29
  C 340.66 315.99 336.95 309.07 335.99 300.96"
/>
<path stroke="#7c7843" d="
  M 335.57 299.20
  L 335.37 256.00"
/>
<path stroke="#7c7843" d="
  M 335.34 247.73
  Q 336.19 245.41 335.06 244.26"
/>
<path stroke="#7c7843" d="
  M 324.65 263.49
  Q 323.76 265.90 323.12 270.75
  Q 322.52 275.35 318.34 290.46"
/>
<path stroke="#7c7843" d="
  M 315.97 296.35
  L 310.67 306.99"
/>
<path stroke="#7c7843" d="
  M 230.72 354.66
  Q 228.94 354.44 227.29 354.97"
/>
<path stroke="#7c7843" d="
  M 222.97 355.57
  Q 215.97 355.01 213.75 355.38
  Q 210.84 355.86 208.84 355.67
  C 205.59 355.36 202.93 355.37 199.87 355.37
  C 196.63 355.37 193.17 354.31 189.61 354.36
  A 2.15 2.09 56.2 0 1 188.67 354.16
  Q 187.07 353.39 185.27 353.65
  Q 184.77 353.72 184.33 353.49
  Q 182.30 352.44 180.04 352.20"
/>
<path stroke="#7c7843" d="
  M 110.92 296.01
  L 108.49 289.75"
/>
<path stroke="#7c7843" d="
  M 107.54 286.76
  Q 107.63 285.08 105.95 283.09"
/>
<path stroke="#7c7843" d="
  M 103.31 273.72
  Q 103.86 271.58 102.83 269.61
  A 1.70 1.64 35.6 0 1 102.66 268.69
  C 102.94 265.79 103.32 261.99 102.11 259.28"
/>
<path stroke="#7c7843" d="
  M 92.74 246.57
  Q 91.92 269.80 92.15 278.00
  Q 92.72 298.62 92.26 304.75
  Q 92.05 307.49 89.13 312.71"
/>
<path stroke="#685b34" d="
  M 70.77 245.73
  Q 75.58 240.45 80.56 235.02
  C 91.97 222.56 100.23 203.52 109.46 188.67
  Q 124.05 165.23 143.64 145.05
  A 1.13 1.13 0.0 0 0 143.20 143.20
  Q 135.82 140.64 127.50 140.68
  C 112.38 140.76 100.37 143.81 84.02 148.56
  Q 83.11 148.82 80.90 147.89"
/>
<path stroke="#7c7843" d="
  M 79.31 142.98
  C 79.39 140.58 79.25 138.44 79.88 136.09
  C 80.99 131.96 81.39 127.92 86.48 126.56
  Q 89.73 125.70 93.07 125.63
  C 95.03 125.58 96.71 124.90 98.74 124.83
  C 102.90 124.69 106.62 123.64 110.75 123.56
  Q 111.38 123.55 112.24 122.87"
/>
<path stroke="#7c7843" d="
  M 114.22 122.51
  C 118.70 122.66 122.39 123.41 126.94 121.89"
/>
<path stroke="#7c7843" d="
  M 127.52 121.55
  Q 130.75 122.17 132.06 121.16"
/>
<path stroke="#7c7843" d="
  M 131.50 118.24
  Q 131.78 116.11 131.50 113.88
  Q 131.17 111.20 131.27 109.60
  C 131.55 105.28 131.20 101.43 132.33 97.15
  Q 133.07 94.32 133.64 91.42"
/>
<path stroke="#7c7843" d="
  M 131.73 74.72
  Q 128.89 68.26 126.73 61.76
  Q 125.65 58.52 121.77 52.51"
/>
<path stroke="#7c7843" d="
  M 102.98 36.07
  Q 99.96 33.98 96.53 34.86"
/>
<path stroke="#7c7843" d="
  M 94.17 33.30
  L 90.53 25.26"
/>
<path stroke="#7c7843" d="
  M 90.51 23.75
  C 91.51 21.45 91.66 18.76 92.97 16.91
  Q 94.94 14.13 98.21 13.08
  C 100.64 12.29 103.79 12.61 106.55 12.63
  C 107.74 12.64 110.07 12.16 111.57 12.91
  Q 113.83 14.04 115.21 13.96"
/>
<path stroke="#7c7843" d="
  M 182.29 45.66
  Q 183.81 45.74 184.90 45.03"
/>
<path stroke="#7c7843" d="
  M 185.52 44.58
  Q 187.96 44.90 189.98 43.77"
/>
<path stroke="#7c7843" d="
  M 193.23 43.34
  Q 194.69 43.68 196.21 43.05"
/>
<path stroke="#7c7843" d="
  M 199.25 42.45
  Q 206.03 42.49 212.77 42.47
  Q 218.84 42.46 224.16 43.47
  Q 231.59 44.88 238.97 46.67"
/>
<path stroke="#7c7843" d="
  M 267.31 59.78
  L 271.03 47.73"
/>
<path stroke="#685b34" d="
  M 271.03 47.73
  L 272.58 42.75"
/>
<path stroke="#685b34" d="
  M 274.64 37.33
  L 279.88 26.56"
/>
<path stroke="#f7bd4d" d="
  M 341.63 144.48
  Q 342.06 144.32 340.71 144.03"
/>
<path stroke="#e3a03f" d="
  M 47.39 255.59
  L 40.71 255.26
  Q 40.21 255.23 39.77 255.00
  C 38.65 254.40 37.40 254.68 36.35 254.35
  C 32.61 253.17 29.88 251.64 27.19 248.49
  C 24.39 245.20 21.07 241.94 19.46 238.17
  Q 17.47 233.51 17.47 228.50
  Q 17.47 221.69 17.98 213.16
  Q 18.21 209.28 19.54 206.02
  Q 21.70 200.71 24.57 195.61"
/>
<path stroke="#e3a03f" d="
  M 62.53 157.45
  C 64.43 158.06 65.69 155.93 67.29 155.29
  Q 68.69 154.73 70.13 154.18
  Q 70.55 154.03 70.82 153.67
  Q 71.22 153.16 71.84 153.13
  Q 72.27 153.11 72.63 152.88
  L 79.22 148.75"
/>
<path stroke="#685b34" d="
  M 204.23 169.72
  Q 191.90 168.74 179.63 168.96
  Q 167.53 169.18 159.89 171.55
  C 137.75 178.42 114.55 200.36 110.31 223.60
  Q 107.48 239.09 112.40 254.39
  A 1.15 1.14 -22.4 0 0 114.01 255.06
  L 131.35 246.09"
/>
<path stroke="#7c7843" d="
  M 131.35 246.09
  C 134.48 246.84 137.88 247.19 140.54 247.76
  C 180.04 256.30 219.14 255.18 259.25 250.03
  Q 269.71 248.69 273.50 247.53
  C 279.38 245.72 289.23 242.32 292.41 243.80
  Q 300.54 247.58 308.96 252.00
  A 1.64 1.63 31.1 0 0 311.07 251.48
  C 313.93 247.25 314.44 241.03 314.29 236.00
  C 314.00 226.16 312.91 215.92 308.06 206.90
  C 298.34 188.82 278.24 175.35 258.77 169.64
  C 246.05 165.92 235.13 167.99 222.89 167.67
  A 0.40 0.40 0.0 0 0 222.54 168.27
  L 235.38 189.76
  Q 236.90 192.30 234.75 190.28
  Q 233.10 188.73 231.31 185.92
  Q 226.06 177.70 221.69 169.39
  A 1.07 1.06 -17.9 0 0 220.59 168.83
  Q 212.35 170.00 204.23 169.72"
/>
<path stroke="#e3a03f" d="
  M 131.35 246.09
  L 162.17 223.12"
/>
<path stroke="#7c7843" d="
  M 162.17 223.12
  C 171.54 224.38 180.72 225.67 189.99 225.91
  Q 209.45 226.40 228.88 225.19
  C 239.49 224.53 249.75 222.76 260.11 220.69
  A 0.25 0.25 0.0 0 0 260.20 220.24
  Q 258.27 218.86 256.61 217.14
  C 248.36 208.64 241.21 199.43 233.55 190.43
  A 2.25 2.24 -23.2 0 0 231.59 189.65
  Q 221.05 190.81 210.50 192.16
  Q 204.36 192.95 187.76 191.39"
/>
<path stroke="#e3a03f" d="
  M 187.76 191.39
  Q 192.67 182.67 197.04 173.82
  Q 197.81 172.27 200.52 169.93
  A 1.22 1.20 -63.9 0 1 201.32 169.65
  L 204.23 169.72"
/>
<path stroke="#685b34" d="
  M 187.76 191.39
  Q 186.28 190.99 185.58 192.09
  Q 176.10 206.93 172.93 210.45
  Q 167.51 216.47 162.17 223.12"
/>
<path stroke="#7c7843" d="
  M 288.75 297.84
  C 293.22 289.14 296.96 280.65 299.56 271.23
  A 0.43 0.42 89.3 0 0 299.03 270.71
  C 280.71 276.05 263.42 281.58 244.29 283.91
  C 205.35 288.64 168.10 287.43 129.66 276.88
  Q 129.15 276.74 128.80 276.35
  Q 128.51 276.03 128.07 275.85
  A 0.69 0.69 0.0 0 0 127.20 276.81
  C 127.91 278.16 128.92 279.45 129.45 280.77
  Q 135.99 296.91 146.33 310.91
  Q 147.82 312.92 149.24 313.12
  Q 163.51 315.07 177.74 317.25
  Q 192.91 319.56 215.25 318.67
  Q 231.20 318.03 247.00 315.80
  C 259.74 314.01 272.22 310.37 284.60 306.86
  A 1.37 1.37 0.0 0 0 285.53 305.93
  Q 286.73 301.78 288.75 297.84"
/>
</g>
<path fill="#f7bd4d" d="
  M 313.77 5.17
  Q 311.27 4.57 308.75 3.84
  Q 305.55 2.91 299.02 4.56
  Q 302.05 3.34 303.00 3.16
  Q 308.14 2.21 313.77 5.17
  Z"
/>
<path fill="#013338" d="
  M 313.77 5.17
  Q 316.37 5.90 317.29 7.76
  Q 323.25 15.84 317.56 24.22
  Q 316.62 25.98 314.56 26.86
  C 311.51 28.16 308.25 29.56 305.93 32.02
  C 304.89 33.13 303.69 33.94 302.81 35.09
  C 301.36 37.00 300.28 38.51 299.23 40.91
  Q 298.60 42.35 297.68 43.57
  Q 294.73 49.83 293.18 56.81
  Q 293.21 58.93 292.27 59.62
  Q 291.31 61.00 291.30 62.78
  L 288.51 70.17
  Q 286.06 74.35 284.96 79.11
  C 284.25 80.67 282.66 81.00 283.52 83.30
  C 287.10 89.83 288.24 96.05 288.99 103.68
  Q 289.02 103.98 289.22 103.76
  Q 289.31 103.65 289.26 103.53
  Q 289.24 103.49 289.24 103.47
  Q 289.19 103.02 289.46 102.67
  Q 289.20 104.68 289.79 106.11
  Q 289.07 109.15 289.87 112.10
  L 289.04 115.00
  Q 287.50 116.26 289.38 117.39
  C 290.22 117.90 292.01 117.66 293.19 118.01
  C 296.69 119.04 299.89 118.46 303.36 119.14
  Q 305.48 119.56 307.65 119.66
  C 310.38 119.80 313.06 120.77 316.02 120.52
  C 317.64 120.38 319.32 121.32 321.02 121.47
  C 323.81 121.73 326.02 122.45 329.02 122.61
  C 341.42 123.26 342.51 134.49 340.71 144.03
  Q 340.01 144.81 338.78 144.43
  C 322.02 139.23 305.99 137.55 288.75 137.68
  C 284.27 137.71 280.00 140.72 276.37 143.11
  A 1.10 1.10 0.0 0 0 276.16 144.76
  C 291.52 161.81 302.90 177.51 317.95 199.57
  Q 333.98 223.07 356.33 239.68
  Q 355.67 251.75 356.66 263.55
  Q 356.40 263.79 356.40 264.00
  Q 356.37 283.17 356.37 302.34
  C 356.37 304.57 355.70 306.61 355.40 308.89
  Q 353.98 312.00 350.21 314.29
  C 340.66 315.99 336.95 309.07 335.99 300.96
  L 335.57 299.20
  L 335.37 256.00
  L 335.34 247.73
  Q 336.19 245.41 335.06 244.26
  C 335.01 241.33 333.86 238.59 332.54 235.86
  Q 330.92 232.53 328.02 230.05
  A 1.16 1.14 51.4 0 0 326.75 229.90
  Q 326.50 230.03 326.31 230.43
  Q 326.17 230.70 326.21 231.09
  C 326.84 237.07 325.57 242.94 325.58 248.47
  Q 325.60 256.06 324.65 263.49
  Q 323.76 265.90 323.12 270.75
  Q 322.52 275.35 318.34 290.46
  L 315.97 296.35
  L 310.67 306.99
  C 309.99 308.77 308.34 309.97 307.50 311.04
  Q 302.76 317.08 301.25 318.74
  C 291.99 328.93 282.00 335.51 269.94 342.50
  Q 268.57 343.30 265.72 344.46
  C 263.73 345.28 262.06 346.42 260.03 347.02
  C 256.59 348.05 253.28 349.48 249.91 350.33
  C 243.40 351.99 237.36 353.58 230.72 354.66
  Q 228.94 354.44 227.29 354.97
  Q 224.78 354.78 222.97 355.57
  Q 215.97 355.01 213.75 355.38
  Q 210.84 355.86 208.84 355.67
  C 205.59 355.36 202.93 355.37 199.87 355.37
  C 196.63 355.37 193.17 354.31 189.61 354.36
  A 2.15 2.09 56.2 0 1 188.67 354.16
  Q 187.07 353.39 185.27 353.65
  Q 184.77 353.72 184.33 353.49
  Q 182.30 352.44 180.04 352.20
  Q 163.82 346.96 149.19 338.37
  C 145.85 336.40 142.48 333.56 138.99 331.26
  Q 135.70 329.09 129.15 321.85
  Q 118.95 310.58 111.28 297.48
  Q 111.10 297.18 110.92 296.01
  L 108.49 289.75
  Q 107.45 288.26 107.54 286.76
  Q 107.63 285.08 105.95 283.09
  Q 105.79 282.18 105.19 281.25
  Q 104.90 280.78 104.95 280.23
  Q 105.05 279.11 104.32 278.25
  A 1.26 1.24 -65.1 0 1 104.02 277.41
  Q 104.07 275.47 103.31 273.72
  Q 103.86 271.58 102.83 269.61
  A 1.70 1.64 35.6 0 1 102.66 268.69
  C 102.94 265.79 103.32 261.99 102.11 259.28
  Q 101.21 252.99 101.37 246.67
  C 101.44 243.86 100.84 240.93 101.09 238.17
  Q 101.45 234.23 98.74 237.12
  C 97.42 238.54 96.48 241.33 95.14 243.12
  Q 93.92 244.73 92.74 246.57
  Q 91.92 269.80 92.15 278.00
  Q 92.72 298.62 92.26 304.75
  Q 92.05 307.49 89.13 312.71
  C 83.42 317.36 76.30 316.30 72.40 310.30
  C 71.11 308.31 71.45 306.25 71.48 304.00
  Q 71.76 279.66 71.21 255.33
  C 71.15 252.66 71.39 249.82 71.40 247.01
  Q 71.40 245.56 70.77 245.73
  Q 75.58 240.45 80.56 235.02
  C 91.97 222.56 100.23 203.52 109.46 188.67
  Q 124.05 165.23 143.64 145.05
  A 1.13 1.13 0.0 0 0 143.20 143.20
  Q 135.82 140.64 127.50 140.68
  C 112.38 140.76 100.37 143.81 84.02 148.56
  Q 83.11 148.82 80.90 147.89
  L 79.31 142.98
  C 79.39 140.58 79.25 138.44 79.88 136.09
  C 80.99 131.96 81.39 127.92 86.48 126.56
  Q 89.73 125.70 93.07 125.63
  C 95.03 125.58 96.71 124.90 98.74 124.83
  C 102.90 124.69 106.62 123.64 110.75 123.56
  Q 111.38 123.55 112.24 122.87
  Q 113.40 122.49 114.22 122.51
  C 118.70 122.66 122.39 123.41 126.94 121.89
  Q 127.03 121.60 127.52 121.55
  Q 130.75 122.17 132.06 121.16
  Q 132.92 119.52 131.50 118.24
  Q 131.78 116.11 131.50 113.88
  Q 131.17 111.20 131.27 109.60
  C 131.55 105.28 131.20 101.43 132.33 97.15
  Q 133.07 94.32 133.64 91.42
  Q 133.81 89.38 135.17 86.94
  C 137.53 82.70 133.62 78.37 131.73 74.72
  Q 128.89 68.26 126.73 61.76
  Q 125.65 58.52 121.77 52.51
  Q 119.72 49.68 117.72 46.76
  Q 112.24 38.79 102.98 36.07
  Q 99.96 33.98 96.53 34.86
  Q 95.27 34.61 94.17 33.30
  L 90.53 25.26
  Q 90.33 24.48 90.51 23.75
  C 91.51 21.45 91.66 18.76 92.97 16.91
  Q 94.94 14.13 98.21 13.08
  C 100.64 12.29 103.79 12.61 106.55 12.63
  C 107.74 12.64 110.07 12.16 111.57 12.91
  Q 113.83 14.04 115.21 13.96
  C 116.97 15.15 118.93 15.99 120.48 17.16
  C 129.46 23.93 135.51 30.27 141.34 39.63
  C 145.04 45.57 150.18 52.73 151.60 59.63
  Q 151.69 60.08 152.14 60.22
  C 154.81 61.02 156.84 57.63 158.42 56.07
  C 160.35 54.16 162.69 53.43 165.09 52.00
  C 167.80 50.40 170.91 49.69 173.75 48.23
  Q 175.58 47.29 182.29 45.66
  Q 183.81 45.74 184.90 45.03
  Q 185.00 44.66 185.52 44.58
  Q 187.96 44.90 189.98 43.77
  Q 191.72 43.84 193.23 43.34
  Q 194.69 43.68 196.21 43.05
  Q 197.92 43.07 199.25 42.45
  Q 206.03 42.49 212.77 42.47
  Q 218.84 42.46 224.16 43.47
  Q 231.59 44.88 238.97 46.67
  Q 241.32 47.03 243.66 48.09
  Q 254.27 52.87 263.27 60.19
  Q 264.28 61.01 265.23 61.10
  Q 267.12 61.27 267.31 59.78
  L 271.03 47.73
  L 272.58 42.75
  L 274.64 37.33
  L 279.88 26.56
  Q 287.28 12.63 299.02 4.56
  Q 305.55 2.91 308.75 3.84
  Q 311.27 4.57 313.77 5.17
  Z
  M 161.57 77.85
  C 157.97 84.03 158.37 89.21 160.94 95.75
  C 162.56 99.87 168.21 97.78 166.92 94.57
  Q 165.95 92.17 165.89 90.76
  Q 165.87 90.27 165.67 89.82
  C 165.01 88.32 165.33 86.90 164.90 85.32
  C 164.27 83.00 164.35 81.02 164.12 78.76
  Q 163.96 77.12 162.63 77.20
  A 1.31 1.30 13.1 0 0 161.57 77.85
  Z
  M 204.23 169.72
  Q 191.90 168.74 179.63 168.96
  Q 167.53 169.18 159.89 171.55
  C 137.75 178.42 114.55 200.36 110.31 223.60
  Q 107.48 239.09 112.40 254.39
  A 1.15 1.14 -22.4 0 0 114.01 255.06
  L 131.35 246.09
  C 134.48 246.84 137.88 247.19 140.54 247.76
  C 180.04 256.30 219.14 255.18 259.25 250.03
  Q 269.71 248.69 273.50 247.53
  C 279.38 245.72 289.23 242.32 292.41 243.80
  Q 300.54 247.58 308.96 252.00
  A 1.64 1.63 31.1 0 0 311.07 251.48
  C 313.93 247.25 314.44 241.03 314.29 236.00
  C 314.00 226.16 312.91 215.92 308.06 206.90
  C 298.34 188.82 278.24 175.35 258.77 169.64
  C 246.05 165.92 235.13 167.99 222.89 167.67
  A 0.40 0.40 0.0 0 0 222.54 168.27
  L 235.38 189.76
  Q 236.90 192.30 234.75 190.28
  Q 233.10 188.73 231.31 185.92
  Q 226.06 177.70 221.69 169.39
  A 1.07 1.06 -17.9 0 0 220.59 168.83
  Q 212.35 170.00 204.23 169.72
  Z
  M 288.75 297.84
  C 293.22 289.14 296.96 280.65 299.56 271.23
  A 0.43 0.42 89.3 0 0 299.03 270.71
  C 280.71 276.05 263.42 281.58 244.29 283.91
  C 205.35 288.64 168.10 287.43 129.66 276.88
  Q 129.15 276.74 128.80 276.35
  Q 128.51 276.03 128.07 275.85
  A 0.69 0.69 0.0 0 0 127.20 276.81
  C 127.91 278.16 128.92 279.45 129.45 280.77
  Q 135.99 296.91 146.33 310.91
  Q 147.82 312.92 149.24 313.12
  Q 163.51 315.07 177.74 317.25
  Q 192.91 319.56 215.25 318.67
  Q 231.20 318.03 247.00 315.80
  C 259.74 314.01 272.22 310.37 284.60 306.86
  A 1.37 1.37 0.0 0 0 285.53 305.93
  Q 286.73 301.78 288.75 297.84
  Z"
/>
<path fill="#f7bd4d" d="
  M 317.29 7.76
  Q 324.77 15.88 317.56 24.22
  Q 323.25 15.84 317.29 7.76
  Z"
/>
<path fill="#f7bd4d" d="
  M 115.21 13.96
  Q 113.83 14.04 111.57 12.91
  C 110.07 12.16 107.74 12.64 106.55 12.63
  C 103.79 12.61 100.64 12.29 98.21 13.08
  Q 94.94 14.13 92.97 16.91
  C 91.66 18.76 91.51 21.45 90.51 23.75
  C 90.54 10.13 106.26 10.13 115.21 13.96
  Z"
/>
<path fill="#f7bd4d" d="
  M 90.53 25.26
  L 94.17 33.30
  C 92.31 31.20 90.32 28.13 90.53 25.26
  Z"
/>
<path fill="#cf8230" d="
  M 279.88 26.56
  L 274.64 37.33
  Q 276.61 31.52 279.88 26.56
  Z"
/>
<path fill="#f7bd4d" d="
  M 102.98 36.07
  L 96.53 34.86
  Q 99.96 33.98 102.98 36.07
  Z"
/>
<path fill="#f7bd4d" d="
  M 238.97 46.67
  Q 231.59 44.88 224.16 43.47
  Q 218.84 42.46 212.77 42.47
  Q 206.03 42.49 199.25 42.45
  Q 209.24 41.70 219.29 42.05
  C 220.76 42.11 221.67 42.92 223.07 43.03
  Q 231.30 43.67 238.97 46.67
  Z"
/>
<path fill="#cf8230" d="
  M 272.58 42.75
  L 271.03 47.73
  Q 271.19 45.22 272.58 42.75
  Z"
/>
<path fill="#f7bd4d" d="
  M 196.21 43.05
  Q 194.69 43.68 193.23 43.34
  Q 194.46 42.85 196.21 43.05
  Z"
/>
<path fill="#f7bd4d" d="
  M 297.68 43.57
  Q 296.78 46.86 295.62 50.08
  C 295.03 51.73 294.57 54.63 293.18 56.81
  Q 294.73 49.83 297.68 43.57
  Z"
/>
<path fill="#f7bd4d" d="
  M 189.98 43.77
  Q 187.96 44.90 185.52 44.58
  L 189.98 43.77
  Z"
/>
<path fill="#f7bd4d" d="
  M 184.90 45.03
  Q 183.81 45.74 182.29 45.66
  Q 183.29 44.91 184.90 45.03
  Z"
/>
<path fill="#f7bd4d" d="
  M 271.03 47.73
  L 267.31 59.78
  Q 266.94 58.12 267.78 56.81
  Q 268.04 56.40 268.04 55.93
  C 268.03 54.04 269.73 49.34 271.03 47.73
  Z"
/>
<path fill="#f7bd4d" d="
  M 121.77 52.51
  Q 125.65 58.52 126.73 61.76
  Q 128.89 68.26 131.73 74.72
  L 121.77 52.51
  Z"
/>
<path fill="#f7bd4d" d="
  M 292.27 59.62
  Q 292.17 61.59 291.30 62.78
  Q 291.31 61.00 292.27 59.62
  Z"
/>
<path fill="#f7bd4d" d="
  M 288.51 70.17
  L 284.96 79.11
  Q 286.06 74.35 288.51 70.17
  Z"
/>
<path fill="#f7bd4d" d="
  M 283.52 83.30
  C 287.74 88.41 288.81 96.32 289.46 102.67
  Q 289.19 103.02 289.24 103.47
  Q 289.24 103.49 289.26 103.53
  Q 289.31 103.65 289.22 103.76
  Q 289.02 103.98 288.99 103.68
  C 288.24 96.05 287.10 89.83 283.52 83.30
  Z"
/>
<path fill="#f7bd4d" d="
  M 133.64 91.42
  Q 133.07 94.32 132.33 97.15
  C 131.20 101.43 131.55 105.28 131.27 109.60
  Q 131.17 111.20 131.50 113.88
  Q 131.78 116.11 131.50 118.24
  Q 130.44 106.96 131.00 101.00
  Q 131.27 98.18 133.64 91.42
  Z"
/>
<path fill="#f7bd4d" d="
  M 289.79 106.11
  Q 290.75 109.16 289.87 112.10
  Q 289.07 109.15 289.79 106.11
  Z"
/>
<path fill="#f7bd4d" d="
  M 289.04 115.00
  Q 288.78 116.28 289.50 116.88
  Q 289.92 117.22 291.09 117.19
  Q 293.30 117.12 295.37 117.95
  A 2.05 2.03 52.6 0 0 296.32 118.08
  Q 300.11 117.65 303.69 118.63
  C 305.58 119.15 307.19 118.80 309.07 119.18
  Q 311.88 119.75 312.99 119.83
  C 316.32 120.05 319.40 120.66 322.66 120.99
  C 324.81 121.21 327.14 122.33 329.82 121.95
  Q 330.32 121.88 330.79 122.06
  C 334.73 123.58 338.54 124.63 340.50 129.13
  Q 341.04 130.38 341.71 131.55
  Q 341.96 131.97 341.94 132.47
  L 341.63 144.48
  Q 342.06 144.32 340.71 144.03
  C 342.51 134.49 341.42 123.26 329.02 122.61
  C 326.02 122.45 323.81 121.73 321.02 121.47
  C 319.32 121.32 317.64 120.38 316.02 120.52
  C 313.06 120.77 310.38 119.80 307.65 119.66
  Q 305.48 119.56 303.36 119.14
  C 299.89 118.46 296.69 119.04 293.19 118.01
  C 292.01 117.66 290.22 117.90 289.38 117.39
  Q 287.50 116.26 289.04 115.00
  Z"
/>
<path fill="#f7bd4d" d="
  M 132.06 121.16
  Q 130.75 122.17 127.52 121.55
  Q 129.76 120.87 132.06 121.16
  Z"
/>
<path fill="#f7bd4d" d="
  M 126.94 121.89
  C 122.39 123.41 118.70 122.66 114.22 122.51
  Q 114.63 122.06 115.25 122.06
  Q 121.14 122.10 126.94 121.89
  Z"
/>
<path fill="#f7bd4d" d="
  M 112.24 122.87
  Q 111.38 123.55 110.75 123.56
  C 106.62 123.64 102.90 124.69 98.74 124.83
  C 96.71 124.90 95.03 125.58 93.07 125.63
  Q 89.73 125.70 86.48 126.56
  C 81.39 127.92 80.99 131.96 79.88 136.09
  C 79.25 138.44 79.39 140.58 79.31 142.98
  Q 78.50 140.39 78.91 137.25
  A 2.10 2.04 65.2 0 1 79.16 136.54
  C 79.94 135.25 79.58 134.02 80.03 132.84
  C 81.14 129.98 82.39 127.59 85.50 126.49
  Q 89.26 125.17 93.23 124.98
  Q 94.63 124.92 97.15 124.27
  C 98.94 123.81 100.80 124.11 102.59 123.78
  Q 104.72 123.38 106.90 123.47
  C 108.77 123.54 110.32 122.80 112.24 122.87
  Z"
/>
<path fill="#f7bd4d" d="
  M 340.71 144.03
  Q 342.06 144.32 341.63 144.48
  Q 349.01 147.06 355.74 150.99
  C 357.16 151.82 358.90 151.83 360.05 152.41
  C 364.34 154.58 370.40 158.16 375.05 161.64
  Q 384.65 168.83 387.72 171.77
  Q 395.20 178.96 405.54 193.11
  C 409.04 197.91 410.79 204.72 412.80 210.30
  Q 413.94 213.45 413.99 216.63
  C 414.06 220.46 414.61 224.47 412.83 228.01
  C 411.67 230.31 410.75 231.97 409.32 234.85
  C 405.93 241.70 400.19 245.03 393.31 247.48
  Q 389.82 248.72 386.55 248.86
  Q 377.19 249.23 368.35 245.71
  Q 365.27 244.48 362.19 243.29
  C 359.84 242.37 358.66 240.72 356.33 239.68
  Q 333.98 223.07 317.95 199.57
  C 302.90 177.51 291.52 161.81 276.16 144.76
  A 1.10 1.10 0.0 0 1 276.37 143.11
  C 280.00 140.72 284.27 137.71 288.75 137.68
  C 305.99 137.55 322.02 139.23 338.78 144.43
  Q 340.01 144.81 340.71 144.03
  Z"
/>
<path fill="#cf8230" d="
  M 70.77 245.73
  Q 68.64 245.60 67.35 248.76
  A 1.20 1.18 -87.5 0 1 66.64 249.42
  Q 58.54 252.15 50.54 255.09
  Q 49.23 255.57 47.39 255.59
  L 40.71 255.26
  Q 40.21 255.23 39.77 255.00
  C 38.65 254.40 37.40 254.68 36.35 254.35
  C 32.61 253.17 29.88 251.64 27.19 248.49
  C 24.39 245.20 21.07 241.94 19.46 238.17
  Q 17.47 233.51 17.47 228.50
  Q 17.47 221.69 17.98 213.16
  Q 18.21 209.28 19.54 206.02
  Q 21.70 200.71 24.57 195.61
  Q 25.05 193.56 26.62 191.37
  C 36.31 177.83 48.73 166.52 62.53 157.45
  C 64.43 158.06 65.69 155.93 67.29 155.29
  Q 68.69 154.73 70.13 154.18
  Q 70.55 154.03 70.82 153.67
  Q 71.22 153.16 71.84 153.13
  Q 72.27 153.11 72.63 152.88
  L 79.22 148.75
  Q 79.97 148.57 80.90 147.89
  Q 83.11 148.82 84.02 148.56
  C 100.37 143.81 112.38 140.76 127.50 140.68
  Q 135.82 140.64 143.20 143.20
  A 1.13 1.13 0.0 0 1 143.64 145.05
  Q 124.05 165.23 109.46 188.67
  C 100.23 203.52 91.97 222.56 80.56 235.02
  Q 75.58 240.45 70.77 245.73
  Z"
/>
<path fill="#f7bd4d" d="
  M 79.22 148.75
  L 72.63 152.88
  Q 72.27 153.11 71.84 153.13
  Q 71.22 153.16 70.82 153.67
  Q 70.55 154.03 70.13 154.18
  Q 68.69 154.73 67.29 155.29
  C 65.69 155.93 64.43 158.06 62.53 157.45
  C 65.55 155.24 68.42 153.38 71.50 151.04
  Q 74.84 148.51 79.22 148.75
  Z"
/>
<path fill="#f7bd4d" d="
  M 131.35 246.09
  L 162.17 223.12
  C 171.54 224.38 180.72 225.67 189.99 225.91
  Q 209.45 226.40 228.88 225.19
  C 239.49 224.53 249.75 222.76 260.11 220.69
  A 0.25 0.25 0.0 0 0 260.20 220.24
  Q 258.27 218.86 256.61 217.14
  C 248.36 208.64 241.21 199.43 233.55 190.43
  A 2.25 2.24 -23.2 0 0 231.59 189.65
  Q 221.05 190.81 210.50 192.16
  Q 204.36 192.95 187.76 191.39
  Q 192.67 182.67 197.04 173.82
  Q 197.81 172.27 200.52 169.93
  A 1.22 1.20 -63.9 0 1 201.32 169.65
  L 204.23 169.72
  Q 212.35 170.00 220.59 168.83
  A 1.07 1.06 -17.9 0 1 221.69 169.39
  Q 226.06 177.70 231.31 185.92
  Q 233.10 188.73 234.75 190.28
  Q 236.90 192.30 235.38 189.76
  L 222.54 168.27
  A 0.40 0.40 0.0 0 1 222.89 167.67
  C 235.13 167.99 246.05 165.92 258.77 169.64
  C 278.24 175.35 298.34 188.82 308.06 206.90
  C 312.91 215.92 314.00 226.16 314.29 236.00
  C 314.44 241.03 313.93 247.25 311.07 251.48
  A 1.64 1.63 31.1 0 1 308.96 252.00
  Q 300.54 247.58 292.41 243.80
  C 289.23 242.32 279.38 245.72 273.50 247.53
  Q 269.71 248.69 259.25 250.03
  C 219.14 255.18 180.04 256.30 140.54 247.76
  C 137.88 247.19 134.48 246.84 131.35 246.09
  Z"
/>
<path fill="#cf8230" d="
  M 204.23 169.72
  L 201.32 169.65
  A 1.22 1.20 -63.9 0 0 200.52 169.93
  Q 197.81 172.27 197.04 173.82
  Q 192.67 182.67 187.76 191.39
  Q 186.28 190.99 185.58 192.09
  Q 176.10 206.93 172.93 210.45
  Q 167.51 216.47 162.17 223.12
  L 131.35 246.09
  L 114.01 255.06
  A 1.15 1.14 -22.4 0 1 112.40 254.39
  Q 107.48 239.09 110.31 223.60
  C 114.55 200.36 137.75 178.42 159.89 171.55
  Q 167.53 169.18 179.63 168.96
  Q 191.90 168.74 204.23 169.72
  Z"
/>
<path fill="#013338" d="
  M 162.17 223.12
  Q 167.51 216.47 172.93 210.45
  Q 176.10 206.93 185.58 192.09
  Q 186.28 190.99 187.76 191.39
  Q 204.36 192.95 210.50 192.16
  Q 221.05 190.81 231.59 189.65
  A 2.25 2.24 -23.2 0 1 233.55 190.43
  C 241.21 199.43 248.36 208.64 256.61 217.14
  Q 258.27 218.86 260.20 220.24
  A 0.25 0.25 0.0 0 1 260.11 220.69
  C 249.75 222.76 239.49 224.53 228.88 225.19
  Q 209.45 226.40 189.99 225.91
  C 180.72 225.67 171.54 224.38 162.17 223.12
  Z"
/>
<path fill="#f7bd4d" d="
  M 24.57 195.61
  Q 21.70 200.71 19.54 206.02
  Q 18.21 209.28 17.98 213.16
  Q 17.47 221.69 17.47 228.50
  Q 17.47 233.51 19.46 238.17
  C 21.07 241.94 24.39 245.20 27.19 248.49
  C 29.88 251.64 32.61 253.17 36.35 254.35
  C 37.40 254.68 38.65 254.40 39.77 255.00
  Q 40.21 255.23 40.71 255.26
  L 47.39 255.59
  C 40.07 257.25 33.75 256.44 28.30 250.83
  Q 22.01 244.34 20.29 241.47
  C 19.44 240.06 17.51 235.68 17.27 232.75
  C 17.17 231.54 16.64 230.63 16.55 229.49
  Q 15.76 218.69 16.61 215.12
  Q 17.12 213.02 17.22 211.71
  C 17.56 207.53 19.99 204.15 21.19 200.23
  Q 21.79 198.29 24.57 195.61
  Z"
/>
<path fill="#f7bd4d" d="
  M 335.06 244.26
  Q 336.19 245.41 335.34 247.73
  L 335.06 244.26
  Z"
/>
<path fill="#f7bd4d" d="
  M 92.74 246.57
  Q 93.13 274.47 92.98 302.45
  C 92.96 306.77 91.76 309.63 89.13 312.71
  Q 92.05 307.49 92.26 304.75
  Q 92.72 298.62 92.15 278.00
  Q 91.92 269.80 92.74 246.57
  Z"
/>
<path fill="#f7bd4d" d="
  M 335.37 256.00
  L 335.57 299.20
  C 335.41 298.56 335.08 298.27 335.07 297.57
  Q 334.73 276.81 335.37 256.00
  Z"
/>
<path fill="#f7bd4d" d="
  M 102.11 259.28
  C 103.32 261.99 102.94 265.79 102.66 268.69
  A 1.70 1.64 35.6 0 0 102.83 269.61
  Q 103.86 271.58 103.31 273.72
  Q 103.17 271.84 102.71 270.04
  C 101.80 266.42 101.93 262.96 102.11 259.28
  Z"
/>
<path fill="#f7bd4d" d="
  M 324.65 263.49
  L 322.87 274.92
  Q 322.79 275.41 322.56 275.84
  C 321.59 277.71 322.36 279.29 321.20 281.05
  Q 320.92 281.49 320.97 282.01
  C 321.11 283.41 320.34 284.21 320.09 285.36
  Q 319.51 288.00 318.34 290.46
  Q 322.52 275.35 323.12 270.75
  Q 323.76 265.90 324.65 263.49
  Z"
/>
<path fill="#f7bd4d" d="
  M 356.66 263.55
  C 357.64 276.10 357.02 289.33 356.97 301.97
  Q 356.97 303.59 356.36 305.44
  Q 355.83 307.04 355.40 308.89
  C 355.70 306.61 356.37 304.57 356.37 302.34
  Q 356.37 283.17 356.40 264.00
  Q 356.40 263.79 356.66 263.55
  Z"
/>
<path fill="#f7bd4d" d="
  M 299.56 271.23
  C 296.96 280.65 293.22 289.14 288.75 297.84
  Q 286.73 301.78 285.53 305.93
  A 1.37 1.37 0.0 0 1 284.60 306.86
  C 272.22 310.37 259.74 314.01 247.00 315.80
  Q 231.20 318.03 215.25 318.67
  Q 192.91 319.56 177.74 317.25
  Q 163.51 315.07 149.24 313.12
  Q 147.82 312.92 146.33 310.91
  Q 135.99 296.91 129.45 280.77
  C 128.92 279.45 127.91 278.16 127.20 276.81
  A 0.69 0.69 0.0 0 1 128.07 275.85
  Q 128.51 276.03 128.80 276.35
  Q 129.15 276.74 129.66 276.88
  C 168.10 287.43 205.35 288.64 244.29 283.91
  C 263.42 281.58 280.71 276.05 299.03 270.71
  A 0.43 0.42 89.3 0 1 299.56 271.23
  Z"
/>
<path fill="#f7bd4d" d="
  M 107.54 286.76
  L 105.95 283.09
  Q 107.63 285.08 107.54 286.76
  Z"
/>
<path fill="#f7bd4d" d="
  M 108.49 289.75
  L 110.92 296.01
  Q 109.14 293.02 108.49 289.75
  Z"
/>
<path fill="#f7bd4d" d="
  M 315.97 296.35
  L 310.67 306.99
  L 315.97 296.35
  Z"
/>
<path fill="#f7bd4d" d="
  M 335.99 300.96
  C 336.95 309.07 340.66 315.99 350.21 314.29
  Q 342.88 316.76 338.59 310.47
  Q 335.78 306.35 335.99 300.96
  Z"
/>
<path fill="#f7bd4d" d="
  M 222.97 355.57
  C 214.17 356.19 204.64 356.63 195.88 355.33
  Q 193.92 355.04 191.02 354.91
  Q 187.12 354.74 180.04 352.20
  Q 182.30 352.44 184.33 353.49
  Q 184.77 353.72 185.27 353.65
  Q 187.07 353.39 188.67 354.16
  A 2.15 2.09 56.2 0 0 189.61 354.36
  C 193.17 354.31 196.63 355.37 199.87 355.37
  C 202.93 355.37 205.59 355.36 208.84 355.67
  Q 210.84 355.86 213.75 355.38
  Q 215.97 355.01 222.97 355.57
  Z"
/>
<path fill="#f7bd4d" d="
  M 230.72 354.66
  Q 229.22 355.10 227.29 354.97
  Q 228.94 354.44 230.72 354.66
  Z"
/>
</svg>
